PathFileType	4	(X/Y/Z)	W08_1_OpenSim.trc																																																																																																																						
DataRate	CameraRate	NumFrames	NumMarkers	Units	OrigDataRate	OrigDataStartFrame	OrigNumFrames																																																																																																																		
100	100	6	40	mm	100	2626	3000																																																																																																																		
Frame#	Time	R.ASIS			R.PSIS			S2			L.PSIS			L.ASIS			R.TH1			R.TH2			R.TH3			R.MKnee			R.Knee			R.SH1			R.SH2			R.SH3			R.SH4			R.Ankle			R.MAnkle			R.Heel			R.MT5			R.MT1			L.TH1			L.TH2			L.TH3			L.TH4			L.MKnee			L.Knee			L.SH1			L.SH2			L.SH3			L.Ankle			L.MAnkle			L.Heel			L.MT5			L.MT1			R.Acr			L.Acr			C7			T10			Clav			Sternum			R.Back		
		X1	Y1	Z1	X2	Y2	Z2	X3	Y3	Z3	X4	Y4	Z4	X5	Y5	Z5	X6	Y6	Z6	X7	Y7	Z7	X8	Y8	Z8	X9	Y9	Z9	X10	Y10	Z10	X11	Y11	Z11	X12	Y12	Z12	X13	Y13	Z13	X14	Y14	Z14	X15	Y15	Z15	X16	Y16	Z16	X17	Y17	Z17	X18	Y18	Z18	X19	Y19	Z19	X20	Y20	Z20	X21	Y21	Z21	X22	Y22	Z22	X23	Y23	Z23	X24	Y24	Z24	X25	Y25	Z25	X26	Y26	Z26	X27	Y27	Z27	X28	Y28	Z28	X29	Y29	Z29	X30	Y30	Z30	X31	Y31	Z31	X32	Y32	Z32	X33	Y33	Z33	X34	Y34	Z34	X35	Y35	Z35	X36	Y36	Z36	X37	Y37	Z37	X38	Y38	Z38	X39	Y39	Z39	X40	Y40	Z40
2626	26.25	985.2599	1055.6166	-428.0449	793.7906	1059.4656	-518.9841	784.7688	1057.9442	-564.2394	790.8633	1066.6622	-614.0036	966.6857	1064.5145	-722.2452	1005.1515	731.2112	-404.0479	926.6736	712.5565	-392.4625	952.2117	605.3189	-397.9058	994.1027	485.3662	-516.1324	985.5573	498.5191	-397.8455	880.6011	374.7981	-385.8902	800.718	295.1117	-396.5829	823.5981	434.5229	-384.2325	743.8392	352.9229	-384.6436	637.1808	237.9306	-384.2174	679.9442	212.8483	-472.0708	576.4774	259.6936	-448.2853	666.4551	123.0777	-344.9578	706.6033	81.5834	-426.886	1008.652	773.2145	-737.2013	1020.4866	665.3936	-725.7668	926.3846	760.3411	-746.6876	940.9449	652.7976	-727.947	1009.5912	514.3336	-599.2513	1008.1451	518.7873	-710.0531	1009.8824	383.8737	-726.0527	928.3404	389.8613	-731.7257	922.8899	280.2791	-723.4977	960.0757	79.6699	-716.3357	993.666	92.1427	-618.8824	897.4706	40.7293	-658.6209	1068.4138	32.1847	-734.2767	1111.2813	44.6218	-637.1687	944.6094	1461.4858	-414.8043	888.6444	1444.6494	-738.6422	858.292	1497.5316	-571.9742	825.3752	1170.665	-560.7115	995.1593	1402.8295	-588.8995	1026.474	1260.519	-578.5025	792.558	1402.2562	-473.541
2627	26.26	984.2872	1056.8591	-429.5107	793.0762	1060.5669	-520.7083	784.0851	1058.9916	-565.9694	790.2341	1067.6644	-615.7381	966.198	1065.1918	-723.8676	1008.9787	734.3238	-404.6379	930.853	713.9372	-393.6042	958.8474	607.302	-398.6901	1003.5146	488.394	-516.8967	994.2517	501.4826	-398.4647	889.5173	378.1998	-387.2426	809.6794	298.4663	-397.8663	832.5574	437.9529	-386.6814	752.74	356.3693	-387.2385	646.0865	241.4881	-387.0318	689.5934	216.2513	-474.661	585.7302	262.3948	-451.7131	676.0211	126.9477	-347.2878	717.0498	85.4127	-428.759	1006.0931	773.0563	-738.5305	1016.9131	665.1404	-726.9697	923.69	760.9716	-747.9625	937.2982	653.3019	-729.0804	1004.4644	514.1995	-600.2587	1002.7845	518.6051	-711.1542	1003.7089	383.6404	-726.8027	922.1802	390.0918	-732.4393	916.0663	280.5473	-724.0639	952.1188	79.6272	-716.3027	985.7568	92.1936	-618.9236	889.6304	40.7466	-658.5703	1060.3362	32.1725	-734.2839	1103.3313	44.6032	-637.2597	943.3002	1462.1218	-415.8633	889.2556	1445.7704	-739.9885	858.0204	1498.5633	-573.5056	824.7147	1171.7588	-562.8242	995.0946	1403.6298	-589.5065	1025.8064	1261.2544	-579.4339	791.5819	1403.195	-475.6502
2628	26.27	983.2753	1058.1484	-430.9407	792.2997	1061.6742	-522.343	783.3409	1060.0278	-567.6044	789.5404	1068.6423	-617.3804	965.6531	1065.8215	-725.4059	1012.5316	737.5244	-405.1144	934.7855	715.4767	-394.63	965.1495	609.4886	-399.3686	1012.4845	491.6007	-517.535	1002.5621	504.5934	-399.0115	898.4701	381.2806	-388.4986	818.9996	301.1999	-398.9863	841.3101	440.8315	-389.0224	761.8123	358.9257	-389.6691	655.7065	243.5542	-389.6205	699.8956	218.534	-477.1721	595.4499	263.3825	-454.7462	686.9532	129.4723	-349.551	728.8315	88.2778	-430.7502	1003.3649	772.8423	-739.7986	1013.1685	664.836	-728.1114	920.8242	761.5594	-749.0572	933.4716	653.7776	-730.0287	999.3156	514.0456	-601.1821	997.276	518.4277	-712.1542	997.4242	383.4163	-727.4499	915.9253	390.3239	-733.0103	909.2021	280.8119	-724.511	944.1728	79.6124	-716.2739	977.8386	92.2329	-618.9287	881.8022	40.7597	-658.4961	1052.2593	32.1686	-734.2884	1095.3845	44.5831	-637.3315	941.9313	1462.7609	-416.8371	889.8012	1446.8806	-741.2389	857.6965	1499.5631	-574.9424	824.0049	1172.8339	-564.8826	994.9603	1404.4163	-590.0357	1025.1127	1261.9834	-580.2698	790.5656	1404.1089	-477.661
2629	26.28	982.2225	1059.4631	-432.3257	791.4606	1062.7634	-523.8768	782.5362	1061.0352	-569.135	788.783	1069.5826	-618.9196	965.0613	1066.4139	-726.855	1015.8283	740.7867	-405.4895	938.4836	717.1578	-395.5426	971.101	611.8502	-399.9591	1021.0011	494.9513	-518.062	1010.4944	507.8047	-399.4967	907.4834	383.9622	-389.6546	828.6949	303.2546	-400.0116	849.8881	443.0781	-391.1653	771.0894	360.5219	-391.8699	666.0563	244.1321	-391.9621	710.8562	219.6659	-479.5645	605.6979	262.7458	-457.3696	699.115	130.6279	-351.7033	741.7967	90.0673	-432.7752	1000.501	772.5852	-740.9895	1009.2811	664.4951	-729.191	917.8192	762.1168	-749.9905	929.4843	654.2354	-730.826	994.1378	513.8645	-602.0358	991.6582	518.2549	-713.0549	991.0597	383.1981	-728.0001	909.616	390.554	-733.4978	902.3374	281.0689	-724.887	936.2385	79.6172	-716.2568	969.9133	92.2606	-618.9086	873.958	40.788	-658.421	1044.1953	32.1714	-734.2993	1087.4302	44.5625	-637.3899	940.5156	1463.3982	-417.7343	890.2959	1447.9852	-742.4012	857.3219	1500.5256	-576.2921	823.2469	1173.8765	-566.8749	994.7285	1405.1952	-590.5314	1024.398	1262.7117	-581.0325	789.515	1404.9918	-479.579
2630	26.29	981.128	1060.7748	-433.6519	790.5579	1063.8092	-525.2996	781.6729	1061.9935	-570.5527	787.9622	1070.4703	-620.3452	964.4308	1066.9796	-728.2095	1018.891	744.0892	-405.7768	941.9484	718.9615	-396.3488	976.689	614.3528	-400.4771	1029.0496	498.4096	-518.4997	1018.0502	511.072	-399.9328	916.5697	386.2059	-390.7	838.7693	304.6091	-401.0224	858.3106	444.6483	-393.0358	780.5811	361.1355	-393.7945	677.1145	243.2611	-394.04	722.4792	219.6527	-481.7831	616.5079	260.5595	-459.6014	712.3929	130.4548	-353.6969	755.8641	90.7701	-434.7435	997.5397	772.299	-742.0906	1005.2819	664.1331	-730.2057	914.7101	762.6552	-750.7914	925.3661	654.6851	-731.5145	988.9149	513.6501	-602.8373	985.9665	518.0833	-713.8608	984.6475	382.9829	-728.471	903.2799	390.7797	-733.952	895.4811	281.322	-725.233	928.3176	79.638	-716.2598	961.9844	92.2795	-618.8738	866.0697	40.849	-658.3647	1036.1529	32.1815	-734.3303	1079.4565	44.5451	-637.4411	939.0697	1464.0196	-418.5628	890.7513	1449.0855	-743.481	856.9008	1501.4442	-577.5591	822.4458	1174.8717	-568.7864	994.3912	1405.9644	-591.0126	1023.663	1263.4354	-581.7393	788.438	1405.8359	-481.4087
2631	26.3	979.9941	1062.0514	-434.9043	789.5888	1064.7898	-526.6034	780.7551	1062.8837	-571.8516	787.0801	1071.2904	-621.6498	963.7662	1067.5242	-729.4666	1021.7345	747.4118	-405.9908	945.1683	720.8632	-397.0572	981.907	616.9556	-400.9322	1036.6086	501.937	-518.8724	1025.2231	514.3563	-400.3316	925.7241	388.0085	-391.6241	849.2263	305.2697	-402.0722	866.5818	445.5323	-394.5869	790.2744	360.7875	-395.4193	688.8483	241.0099	-395.8392	734.7645	218.526	-483.7622	627.8932	256.8868	-461.4683	726.7122	129.0461	-355.4857	771.0096	90.4563	-436.5732	994.5182	771.9957	-743.094	1001.1984	663.7639	-731.1506	911.5335	763.1832	-751.4944	921.1516	655.1341	-732.1362	983.6306	513.4016	-603.6019	980.2238	517.908	-714.5814	978.2096	382.7697	-728.8864	896.9284	391.001	-734.4036	888.6162	281.5797	-725.5759	920.4131	79.6754	-716.2856	954.0564	92.2963	-618.8345	858.1173	40.9524	-658.3386	1028.1371	32.2004	-734.3926	1071.4622	44.5309	-637.4934	937.6124	1464.6069	-419.3282	891.1737	1450.1796	-744.4822	856.4379	1502.3121	-578.7433	821.6113	1175.8081	-570.6036	993.9571	1406.7154	-591.4783	1022.9065	1264.1434	-582.4014	787.3441	1406.6329	-483.1529
